<svg width="35" height="27" viewBox="0 0 35 27" fill="none" xmlns="http://www.w3.org/2000/svg">
<path d="M31.375 1.16668C29.6638 0.627094 27.7829 0.395844 25.9792 0.395844C22.9729 0.395844 19.7354 1.01251 17.5 2.70834C15.2646 1.01251 12.0271 0.395844 9.02085 0.395844C6.0146 0.395844 2.7771 1.01251 0.541687 2.70834V25.2938C0.541687 25.6792 0.927104 26.0646 1.31252 26.0646C1.46669 26.0646 1.54377 25.9875 1.69794 25.9875C3.77919 24.9854 6.78544 24.2917 9.02085 24.2917C12.0271 24.2917 15.2646 24.9083 17.5 26.6042C19.5813 25.2938 23.3584 24.2917 25.9792 24.2917C28.5229 24.2917 31.1438 24.7542 33.3021 25.9104C33.4563 25.9875 33.5334 25.9875 33.6875 25.9875C34.0729 25.9875 34.4584 25.6021 34.4584 25.2167V2.70834C33.5334 2.01459 32.5313 1.55209 31.375 1.16668ZM31.375 21.9792C29.6792 21.4396 27.8292 21.2083 25.9792 21.2083C23.3584 21.2083 19.5813 22.2104 17.5 23.5208V5.79168C19.5813 4.48126 23.3584 3.47918 25.9792 3.47918C27.8292 3.47918 29.6792 3.71043 31.375 4.25001V21.9792Z" fill="#703EFF"/>
<path d="M25.9792 9.64584C27.3359 9.64584 28.6463 9.78459 29.8334 10.0467V7.70334C28.6154 7.47209 27.305 7.33334 25.9792 7.33334C23.3584 7.33334 20.9842 7.78043 19.0417 8.61293V11.1721C20.7838 10.1854 23.2042 9.64584 25.9792 9.64584Z" fill="#703EFF"/>
<path d="M19.0417 12.7138V15.2729C20.7838 14.2863 23.2042 13.7467 25.9792 13.7467C27.3359 13.7467 28.6463 13.8854 29.8334 14.1475V11.8042C28.6154 11.5729 27.305 11.4342 25.9792 11.4342C23.3584 11.4342 20.9842 11.8967 19.0417 12.7138Z" fill="#703EFF"/>
<path d="M25.9792 15.5504C23.3584 15.5504 20.9842 15.9975 19.0417 16.83V19.3892C20.7838 18.4025 23.2042 17.8629 25.9792 17.8629C27.3359 17.8629 28.6463 18.0017 29.8334 18.2638V15.9204C28.6154 15.6738 27.305 15.5504 25.9792 15.5504Z" fill="#703EFF"/>
</svg>
